<?xml version="1.0" standalone="no"?>
<!DOCTYPE svg PUBLIC "-//W3C//DTD SVG 20010904//EN"
 "http://www.w3.org/TR/2001/REC-SVG-20010904/DTD/svg10.dtd">
<svg version="1.0" xmlns="http://www.w3.org/2000/svg"
 width="800.000000pt" height="800.000000pt" viewBox="0 0 800.000000 800.000000"
 preserveAspectRatio="xMidYMid meet">
<metadata>
Created by potrace 1.11, written by Peter Selinger 2001-2013
</metadata>
<g transform="translate(0.000000,800.000000) scale(0.100000,-0.100000)"
fill="#000000" stroke="none">
<path d="M2539 6466 c-2 -2 -42 -7 -89 -10 -47 -4 -94 -9 -105 -11 -11 -3 -38
-7 -60 -10 -274 -37 -678 -142 -1082 -279 -124 -42 -189 -58 -293 -71 -62 -8
-307 -8 -320 0 -7 4 -9 -728 -8 -2272 l3 -2278 400 1 c436 0 585 8 765 39 14
2 43 7 65 10 22 3 65 10 95 15 30 6 69 13 85 16 17 2 80 14 140 26 61 11 119
22 130 24 11 2 31 6 45 8 14 3 47 8 74 11 27 3 52 8 55 10 3 1 31 6 61 9 30 4
66 9 80 11 119 21 396 23 531 5 113 -15 270 -55 344 -88 65 -28 152 -78 173
-99 10 -10 93 -13 371 -13 336 0 360 1 382 19 152 119 427 192 729 194 91 0
258 -9 310 -17 24 -4 97 -15 150 -22 21 -2 69 -11 105 -19 6 -2 28 -6 50 -9
22 -3 51 -8 65 -11 41 -9 69 -14 190 -35 63 -12 126 -23 140 -25 14 -3 45 -7
70 -11 25 -3 52 -7 60 -9 8 -2 42 -7 75 -11 33 -3 68 -8 78 -10 62 -11 273
-18 617 -18 l395 -1 3 2272 2 2272 -132 0 c-128 0 -182 4 -278 17 -24 3 -147
39 -273 80 -377 122 -711 211 -897 240 -19 3 -46 7 -60 10 -14 2 -45 7 -70 10
-25 3 -47 8 -50 9 -31 18 -472 26 -675 11 -188 -13 -326 -25 -359 -32 -11 -2
-38 -6 -59 -9 -65 -10 -168 -45 -232 -78 -60 -32 -228 -187 -278 -257 -23 -33
-25 -43 -25 -155 1 -123 -12 -1839 -15 -2157 -2 -166 -7 -202 -24 -184 -8 8
-8 10 -18 1306 -4 487 -8 948 -9 1026 l-1 141 -54 61 c-208 241 -336 296 -761
327 -41 3 -100 8 -130 11 -72 6 -476 15 -481 10z m1470 -3741 c-2 -256 -5
-465 -9 -465 -8 0 -13 907 -5 920 3 5 8 10 11 10 3 0 4 -209 3 -465z m-1 -505
c-1 -16 -5 -30 -9 -30 -4 0 -6 14 -5 30 0 17 4 30 9 30 4 0 6 -13 5 -30z m-2
-165 c-1 -8 -5 -17 -8 -21 -5 -4 -4 16 1 34 3 9 9 -1 7 -13z m-5 -148 c-10 -9
-11 -8 -5 6 3 10 9 15 12 12 3 -3 0 -11 -7 -18z"/>
</g>
</svg>
